<?xml version="1.0" encoding="utf-8"?>
<!-- Generator: Adobe Illustrator 28.1.0, SVG Export Plug-In . SVG Version: 6.00 Build 0)  -->
<svg version="1.1" id="Layer_1" xmlns="http://www.w3.org/2000/svg" xmlns:xlink="http://www.w3.org/1999/xlink" x="0px" y="0px"
	 viewBox="0 0 100 100" style="enable-background:new 0 0 100 100;" xml:space="preserve">
<style type="text/css">
	.st0{fill:url(#SVGID_1_);}
	.st1{fill-rule:evenodd;clip-rule:evenodd;fill:#FFFFFF;}
</style>
<linearGradient id="SVGID_1_" gradientUnits="userSpaceOnUse" x1="13.4876" y1="24.9182" x2="95.8874" y2="81.5187">
	<stop  offset="0" style="stop-color:#632C65"/>
	<stop  offset="1" style="stop-color:#56A5E2"/>
</linearGradient>
<path class="st0" d="M50,0C22.4,0,0,22.4,0,50c0,27.6,22.4,50,50,50c27.6,0,50-22.4,50-50C100,22.4,77.6,0,50,0z"/>
<g>
	<path class="st1" d="M50,30.6c3.1,0,5.9,1.9,7.1,4.7c1.2,2.9,0.5,6.1-1.7,8.3c-2.2,2.2-5.5,2.8-8.3,1.7c-2.9-1.2-4.7-4-4.7-7.1
		C42.4,34,45.8,30.6,50,30.6L50,30.6z"/>
	<path class="st1" d="M65.7,63.5c0.1,1.2-0.6,2.3-1.7,2.8c-8.9,4.1-19.1,4.1-28,0c-1.1-0.5-1.8-1.6-1.7-2.8c0.2-5.4,3.3-10.4,8-13
		c4.8-2.7,10.6-2.7,15.3,0C62.4,53.1,65.5,58,65.7,63.5L65.7,63.5z"/>
</g>
</svg>
