<?xml version="1.0" encoding="utf-8"?>
<!-- Generator: Adobe Illustrator 28.1.0, SVG Export Plug-In . SVG Version: 6.00 Build 0)  -->
<svg version="1.1" id="Layer_1" xmlns="http://www.w3.org/2000/svg" xmlns:xlink="http://www.w3.org/1999/xlink" x="0px" y="0px"
	 viewBox="0 0 100 100" style="enable-background:new 0 0 100 100;" xml:space="preserve">
<style type="text/css">
	.st0{fill:#FFFFFF;}
	.st1{fill:url(#SVGID_1_);}
</style>
<rect x="-106.4" y="-24.3" transform="matrix(0.9999 1.458503e-02 -1.458503e-02 0.9999 0.1409 1.0502)" class="st0" width="69" height="69"/>
<linearGradient id="SVGID_1_" gradientUnits="userSpaceOnUse" x1="13.4876" y1="24.9182" x2="95.8874" y2="81.5187">
	<stop  offset="0" style="stop-color:#632C65"/>
	<stop  offset="1" style="stop-color:#56A5E2"/>
</linearGradient>
<path class="st1" d="M50,0C22.4,0,0,22.4,0,50c0,27.6,22.4,50,50,50c27.6,0,50-22.4,50-50C100,22.4,77.6,0,50,0z"/>
<path class="st0" d="M66.3,55c0,0.4-0.3,0.8-0.8,0.8h-9.7v9.7c0,0.4-0.3,0.8-0.8,0.8H45c-0.4,0-0.8-0.3-0.8-0.8v-9.7h-9.7
	c-0.4,0-0.8-0.3-0.8-0.8V45c0-0.4,0.3-0.8,0.8-0.8h9.7v-9.7c0-0.4,0.3-0.8,0.8-0.8h10c0.4,0,0.8,0.3,0.8,0.8v9.7h9.7
	c0.4,0,0.8,0.3,0.8,0.8C66.3,45,66.3,55,66.3,55z"/>
</svg>
