<?xml version="1.0" encoding="utf-8"?>
<!-- Generator: Adobe Illustrator 28.1.0, SVG Export Plug-In . SVG Version: 6.00 Build 0)  -->
<svg version="1.1" id="Layer_1" xmlns="http://www.w3.org/2000/svg" xmlns:xlink="http://www.w3.org/1999/xlink" x="0px" y="0px"
	 viewBox="0 0 100 100" style="enable-background:new 0 0 100 100;" xml:space="preserve">
<style type="text/css">
	.st0{fill:url(#SVGID_1_);}
	.st1{fill:#FFFFFF;}
</style>
<linearGradient id="SVGID_1_" gradientUnits="userSpaceOnUse" x1="13.4876" y1="24.9182" x2="95.8874" y2="81.5187">
	<stop  offset="0" style="stop-color:#632C65"/>
	<stop  offset="1" style="stop-color:#56A5E2"/>
</linearGradient>
<path class="st0" d="M50,0C22.4,0,0,22.4,0,50c0,27.6,22.4,50,50,50c27.6,0,50-22.4,50-50C100,22.4,77.6,0,50,0z"/>
<path class="st1" d="M50,31.3c-10.3,0-18.7,8.4-18.7,18.7S39.7,68.7,50,68.7S68.7,60.3,68.7,50S60.3,31.3,50,31.3z M62.6,57.6
	c-0.1-0.3-0.3-0.7-0.6-0.9l-1.8-1.8c-0.3-0.3-0.5-0.7-0.6-1.1L59,50.6c-0.1-0.4-0.3-0.8-0.6-1.1l-0.9-0.9c-0.9-0.9-0.9-2.2,0-3.1
	c0.5-0.5,1.2-0.7,1.9-0.6l3.2,0.5c0.5,0.1,1,0,1.4-0.3l1.9-1.1c2.1,5.5,1.1,11.7-2.5,16.3L62.6,57.6z M63.3,39.5l-2.2,1.4
	c-0.3,0.2-0.6,0.3-0.9,0.4l-1.8,0.3c-1.4,0.2-2.7-0.7-3-2.1c0-0.1,0-0.3,0-0.4v-0.7c0-0.4,0.1-0.9,0.3-1.3l1.3-2.4
	C59.5,35.7,61.6,37.3,63.3,39.5z M44.1,34.1l1.1,0.8c0.7,0.5,1,1.5,0.7,2.3L45.7,38c-0.1,0.3-0.3,0.6-0.5,0.8l-1.7,1.7
	c-0.4,0.4-0.6,0.9-0.6,1.4v1c0,0.5-0.2,1.1-0.6,1.4c-0.7,0.7-0.8,1.8-0.3,2.6l0.1,0.1c0.5,0.7,1.3,1,2.1,0.9l2.2-0.4
	c0.6-0.1,1.2,0,1.6,0.4l2.4,1.8c0.2,0.2,0.5,0.4,0.6,0.7l0.9,1.8c0.4,0.8,0.2,1.7-0.4,2.4l-1.9,1.9c-0.4,0.4-0.6,0.9-0.6,1.4v3.4
	c0,0.7-0.3,1.3-0.9,1.7l-0.6,0.4c-0.7,0.5-1.6,0.5-2.3,0l-0.6-0.4c-0.6-0.4-0.9-1-0.9-1.7v-2.3c0-0.7-0.3-1.3-0.9-1.7L42,56.8
	c-0.6-0.4-0.9-1-0.9-1.7v-3.4c0-0.5-0.2-1.1-0.6-1.4l-1.7-1.7c-0.2-0.2-0.5-0.4-0.8-0.5l-1.2-0.4c-0.6-0.2-1.1-0.7-1.3-1.3l-0.3-0.9
	c-0.2-0.5-0.5-0.9-1-1.2l-0.1,0C35.7,39.5,39.4,35.8,44.1,34.1z"/>
</svg>
