<svg xmlns="http://www.w3.org/2000/svg" version="1.1" xmlns:xlink="http://www.w3.org/1999/xlink" width="512" height="512" x="0" y="0" viewBox="0 0 64 64" style="enable-background:new 0 0 512 512" xml:space="preserve" class=""><g><path d="m43.798 17.787-6.675-.981a.223.223 0 0 1-.167-.122l-2.976-6.055a2.209 2.209 0 0 0-1.992-1.241h-.002c-.85 0-1.613.473-1.99 1.235L27 16.668a.223.223 0 0 1-.168.121l-6.677.959c-.843.121-1.532.7-1.797 1.51-.264.81-.05 1.682.559 2.278l4.822 4.717a.22.22 0 0 1 .065.196l-1.152 6.648a2.21 2.21 0 0 0 .88 2.174c.69.501 1.586.569 2.341.173l5.98-3.13a.214.214 0 0 1 .203.001l5.966 3.15a2.208 2.208 0 0 0 2.34-.166c.69-.5 1.03-1.332.888-2.171l-1.129-6.652a.219.219 0 0 1 .064-.197l4.838-4.7c.612-.595.829-1.468.566-2.278s-.95-1.39-1.791-1.514zm-.17 2.358-4.838 4.7a2.222 2.222 0 0 0-.642 1.966l1.13 6.652a.207.207 0 0 1-.089.216.203.203 0 0 1-.233.016l-5.967-3.15a2.215 2.215 0 0 0-2.067-.001l-5.977 3.129c-.083.043-.16.036-.234-.018s-.104-.127-.088-.217l1.151-6.648a2.224 2.224 0 0 0-.635-1.967l-4.824-4.717a.208.208 0 0 1-.056-.227.208.208 0 0 1 .18-.15l6.68-.96a2.222 2.222 0 0 0 1.672-1.212l2.997-6.046a.206.206 0 0 1 .198-.123c.092 0 .16.042.2.124l2.975 6.054a2.223 2.223 0 0 0 1.671 1.218l6.676.982c.09.013.15.064.178.15a.208.208 0 0 1-.057.229zm5.247-6.251-7.696-1.131a2.358 2.358 0 0 1-1.773-1.293l-3.431-6.982a4.33 4.33 0 0 0-3.905-2.434h-.007a4.332 4.332 0 0 0-3.904 2.422l-3.453 6.97a2.358 2.358 0 0 1-1.778 1.286l-7.7 1.107a4.331 4.331 0 0 0-3.522 2.96 4.33 4.33 0 0 0 1.095 4.469l5.562 5.439c.555.543.807 1.322.674 2.087l-1.327 7.665a4.331 4.331 0 0 0 1.727 4.265 4.334 4.334 0 0 0 4.588.34l1.905-.998v8.508a2.994 2.994 0 0 0-2.626 2.962v2.484H19.66c-1.654 0-3 1.346-3 3v2c0 1.655 1.346 3 3 3H44.43c1.654 0 3-1.345 3-3v-2c0-1.654-1.346-3-3-3h-3.643v-2.484a3 3 0 0 0-2.466-2.946v-8.382l1.67.882c.645.34 1.343.508 2.038.508.897 0 1.788-.28 2.551-.832a4.333 4.333 0 0 0 1.741-4.26l-1.302-7.67a2.36 2.36 0 0 1 .681-2.086l5.578-5.42a4.331 4.331 0 0 0 1.112-4.464 4.332 4.332 0 0 0-3.514-2.972zM44.429 56.02a1 1 0 0 1 1 1v2a1 1 0 0 1-1 1H19.66a1 1 0 0 1-1-1v-2a1 1 0 0 1 1-1zm-5.643-4.485v2.484H25.304v-2.484a1 1 0 0 1 1-1h11.482a1 1 0 0 1 1 1zm-10.856-3v-9.518l2.986-1.564a2.362 2.362 0 0 1 2.194.004l3.21 1.695v9.383h-8.39zm21.954-28.64-5.58 5.42a4.36 4.36 0 0 0-1.26 3.855l1.304 7.669a2.314 2.314 0 0 1-.942 2.305c-.744.54-1.67.603-2.482.175l-6.88-3.632a4.363 4.363 0 0 0-4.056-.005l-3.448 1.806-3.442 1.803a2.314 2.314 0 0 1-2.484-.185 2.313 2.313 0 0 1-.933-2.306l1.327-7.664a4.35 4.35 0 0 0-1.246-3.86l-5.563-5.44a2.315 2.315 0 0 1-.593-2.417 2.313 2.313 0 0 1 1.907-1.6l7.7-1.107a4.36 4.36 0 0 0 3.285-2.378l3.454-6.97a2.31 2.31 0 0 1 2.111-1.311h.004A2.312 2.312 0 0 1 34.18 5.37l3.431 6.98a4.355 4.355 0 0 0 3.277 2.39l7.696 1.131c.908.134 1.62.735 1.901 1.608a2.315 2.315 0 0 1-.601 2.415zm-16.947-1.369v9.077a1 1 0 1 1-2 0v-6.957l-.749.618a1 1 0 1 1-1.271-1.543l2.385-1.966a1 1 0 0 1 1.635.771z" fill="#00b6b1" opacity="1" data-original="#000000" class=""></path></g></svg>