<svg xmlns="http://www.w3.org/2000/svg" version="1.1" xmlns:xlink="http://www.w3.org/1999/xlink" width="512" height="512" x="0" y="0" viewBox="0 0 512 512" style="enable-background:new 0 0 512 512" xml:space="preserve" class=""><g><path d="M42.671 477.092v9.302c0 14.139 11.463 25.602 25.602 25.602h68.273c14.139 0 25.602-11.463 25.602-25.602v-8.534h170.681v8.534c0 14.139 11.463 25.602 25.602 25.602h68.273c14.139 0 25.602-11.463 25.602-25.602v-8.534c14.139 0 25.602-11.463 25.602-25.602V123.081l26.268-26.268a25.96 25.96 0 0 0 7.135-24.51 97.716 97.716 0 0 0-27.198-44.377A97.8 97.8 0 0 0 439.685.685a26.043 26.043 0 0 0-24.518 7.135l-26.259 26.268H51.205C22.937 34.116.028 57.024 0 85.291v341.363c.046 24.96 18.064 46.258 42.671 50.438zm102.409 9.302a8.534 8.534 0 0 1-8.534 8.534H68.273a8.534 8.534 0 0 1-8.534-8.534v-8.534h85.34v8.534zm290.158 0a8.534 8.534 0 0 1-8.534 8.534h-68.273a8.534 8.534 0 0 1-8.534-8.534v-8.534h85.341zm-7.996-466.507a8.772 8.772 0 0 1 8.244-2.654 80.816 80.816 0 0 1 36.56 22.726 80.904 80.904 0 0 1 22.726 36.551 8.853 8.853 0 0 1-2.662 8.236l-63.4 63.153a26.25 26.25 0 0 0-33.717 34.025l-4.523 4.42a7.903 7.903 0 0 1-11.009 1.101L324.5 132.536a6.468 6.468 0 0 1-1.707-4.873 9.388 9.388 0 0 1 2.842-6.136l4.634-4.429a26.261 26.261 0 0 0 33.727-34.034zm-80.211 65.404a14.664 14.664 0 0 0 1.186 4.352 9.218 9.218 0 0 1-11.615 11.606 16.906 16.906 0 0 0-18.861 3.994l-4.207 4.207a26.386 26.386 0 0 0-7.817 17.393 23.174 23.174 0 0 0 6.717 17.751l9.388 9.345-80.988 80.946-18.519 7.954c-.154.068-.282.162-.427.23V85.291zm-1.06 92.835-80.946 80.946a16.832 16.832 0 0 0-3.618 5.333l-8.014 18.639a12.085 12.085 0 0 1-5.359 5.855L215.69 306.94l-10.634-10.634 18.024-32.43a12.051 12.051 0 0 1 5.898-5.35l18.579-7.988a16.954 16.954 0 0 0 5.342-3.618l80.954-80.946zM238.954 383.985h-17.069v-34.136h17.069zm0-51.205h-17.069v-9.934c.35-.154.708-.222 1.05-.401l16.018-8.935v19.27zm17.069-28.785.299-.171a29.21 29.21 0 0 0 12.588-13.714h89.522v102.409H256.023zm-51.205-42.372-15.361 27.565a15.312 15.312 0 0 0 2.654 18.332l12.187 12.187c.154.154.333.265.486.41v106.539H93.115c-3.598-21.479-20.431-38.308-41.911-41.903l.068-257.508c21.462-3.637 38.258-20.481 41.834-41.954h111.712zm17.069 139.43h19.441a17.007 17.007 0 0 0 14.695 8.534h102.409c9.427 0 17.068-7.642 17.068-17.069V290.109c0-9.427-7.642-17.068-17.068-17.068h-82.157l.853-1.903 80.946-80.946 9.388 9.388a23.196 23.196 0 0 0 16.564 6.734 26.326 26.326 0 0 0 18.579-7.835l4.198-4.198a16.922 16.922 0 0 0 4.002-18.878 9.21 9.21 0 0 1 11.606-11.598 14.65 14.65 0 0 0 4.352 1.178l-.102 219.761c-21.45 3.639-38.247 20.456-41.86 41.911H221.887zM17.069 85.291c0-18.853 15.283-34.136 34.136-34.136h320.634L354.77 68.224H93.107a17 17 0 0 0-16.778 14.235 34.136 34.136 0 0 1-27.889 27.957c-8.242 1.32-14.303 8.432-14.303 16.778v257.559a16.982 16.982 0 0 0 14.226 16.769 34.136 34.136 0 0 1 27.957 27.906 17.016 17.016 0 0 0 16.786 14.294h291.695a17.002 17.002 0 0 0 16.779-14.269 34.196 34.196 0 0 1 27.889-27.923c8.242-1.32 14.303-8.432 14.303-16.778V157.217l17.068-17.068v312.108a8.534 8.534 0 0 1-8.534 8.534H51.205c-18.853 0-34.136-15.283-34.136-34.136z" fill="#00b6b1" opacity="1" data-original="#000000" class=""></path><path d="M153.614 307.178H93.875c-14.139 0-25.602 11.463-25.602 25.602v17.068c0 14.139 11.463 25.602 25.602 25.602h59.738c14.139 0 25.602-11.463 25.602-25.602V332.78c.001-14.139-11.462-25.602-25.601-25.602zm8.533 42.671a8.534 8.534 0 0 1-8.534 8.534H93.875a8.534 8.534 0 0 1-8.534-8.534V332.78a8.534 8.534 0 0 1 8.534-8.534h59.738a8.534 8.534 0 0 1 8.534 8.534zM153.614 221.838H93.875c-14.139 0-25.602 11.463-25.602 25.602v17.068c0 14.139 11.463 25.602 25.602 25.602h59.738c14.139 0 25.602-11.463 25.602-25.602V247.44c.001-14.14-11.462-25.603-25.601-25.602zm8.533 42.669a8.534 8.534 0 0 1-8.534 8.534H93.875a8.534 8.534 0 0 1-8.534-8.534v-17.068a8.534 8.534 0 0 1 8.534-8.534h59.738a8.534 8.534 0 0 1 8.534 8.534zM68.273 162.098v17.068c0 14.14 11.463 25.602 25.602 25.602h59.738c14.139 0 25.602-11.463 25.602-25.602v-17.068c0-14.139-11.463-25.602-25.602-25.602H93.875c-14.14 0-25.602 11.463-25.602 25.602zm17.068 0a8.534 8.534 0 0 1 8.534-8.534h59.739a8.534 8.534 0 0 1 8.534 8.534v17.068a8.534 8.534 0 0 1-8.534 8.534H93.875a8.534 8.534 0 0 1-8.534-8.534z" fill="#00b6b1" opacity="1" data-original="#000000" class=""></path><g fill-rule="evenodd" clip-rule="evenodd"><path d="M162.147 392.519h-42.671c-4.713 0-8.534 3.82-8.534 8.534s3.821 8.534 8.534 8.534h42.671c4.713 0 8.534-3.82 8.534-8.534s-3.82-8.534-8.534-8.534zM119.478 119.429h42.671a8.534 8.534 0 0 0 0-17.068h-42.671a8.534 8.534 0 0 0 0 17.068z" fill="#00b6b1" opacity="1" data-original="#000000" class=""></path><circle cx="281.625" cy="315.712" r="8.534" fill="#00b6b1" opacity="1" data-original="#000000" class=""></circle><path d="M332.829 358.383h-51.204a8.534 8.534 0 0 0-8.534 8.534 8.534 8.534 0 0 0 8.534 8.534h51.204c4.713 0 8.534-3.82 8.534-8.534s-3.82-8.534-8.534-8.534zM401.102 307.178a8.534 8.534 0 0 0 8.534-8.534v-17.068a8.534 8.534 0 0 0-17.068 0v17.068a8.534 8.534 0 0 0 8.534 8.534zM401.102 358.383a8.534 8.534 0 0 0 8.534-8.534V332.78a8.534 8.534 0 0 0-17.068 0v17.068a8.534 8.534 0 0 0 8.534 8.535zM391.56 104.783a8.478 8.478 0 0 0 6.034-2.5l38.173-38.156a8.54 8.54 0 0 0-3.828-14.286 8.541 8.541 0 0 0-8.248 2.21l-38.164 38.164a8.535 8.535 0 0 0 6.033 14.568zM409.704 126.46a8.535 8.535 0 0 0 12.067 0l38.164-38.164a8.536 8.536 0 0 0-12.075-12.067l-38.156 38.164a8.535 8.535 0 0 0 0 12.067z" fill="#00b6b1" opacity="1" data-original="#000000" class=""></path><circle cx="247.489" cy="110.894" r="8.534" fill="#00b6b1" opacity="1" data-original="#000000" class=""></circle><circle cx="281.625" cy="145.031" r="8.534" fill="#00b6b1" opacity="1" data-original="#000000" class=""></circle><circle cx="281.625" cy="110.894" r="8.534" fill="#00b6b1" opacity="1" data-original="#000000" class=""></circle><path d="M247.489 204.769a8.534 8.534 0 0 0 8.534-8.534v-51.204c0-4.713-3.82-8.534-8.534-8.534s-8.534 3.82-8.534 8.534v51.204a8.532 8.532 0 0 0 8.534 8.534z" fill="#00b6b1" opacity="1" data-original="#000000" class=""></path></g></g></svg>