<svg xmlns="http://www.w3.org/2000/svg" version="1.1" xmlns:xlink="http://www.w3.org/1999/xlink" width="512" height="512" x="0" y="0" viewBox="0 0 512 512" style="enable-background:new 0 0 512 512" xml:space="preserve"><g><path d="M504 400h-8V72c0-13.255-10.745-24-24-24H40c-13.255 0-24 10.745-24 24v328H8a8 8 0 0 0-8 8c.048 39.744 32.256 71.951 72 72h368c39.744-.049 71.952-32.256 72-72a8 8 0 0 0-8-8zM32 72a8 8 0 0 1 8-8h432a8 8 0 0 1 8 8v328H32zm302.632 344A24.047 24.047 0 0 1 312 432H200a24.047 24.047 0 0 1-22.632-16zM440 464H72c-27.826-.035-51.419-20.465-55.432-48H160.81c3.723 18.246 19.849 31.977 39.19 32h112c19.34-.023 35.467-13.754 39.19-32h144.242c-4.013 27.535-27.606 47.965-55.432 48z" fill="#00b6b1" opacity="1" data-original="#000000"></path><path d="M464 376V160h-16v208H64v-32H48v40a8 8 0 0 0 8 8h400a8 8 0 0 0 8-8zM64 96h384v16l16-.096V88a8 8 0 0 0-8-8H56a8 8 0 0 0-8 8v200h16z" fill="#00b6b1" opacity="1" data-original="#000000"></path><path d="M112 296h88v16h-88zM144 328h56v16h-56zM385.376 235.48l24-4.144a8 8 0 0 0 6.528-9.232l-5.4-31.536-.003-.018a8 8 0 0 0-9.253-6.51l-24 4.144a5.728 5.728 0 0 1-5.488-8.8l14.104-19.992a8 8 0 0 0-1.912-11.128L357.928 129.8l-.059-.042a8 8 0 0 0-11.141 1.97l-14.032 20a5.521 5.521 0 0 1-5.848 2.088 5.442 5.442 0 0 1-4.2-4.392l-4.128-24.088-.004-.024a8.001 8.001 0 0 0-9.252-6.512l-31.392 5.424a8 8 0 0 0-6.528 9.24l4.128 24.088a5.6 5.6 0 0 1-2.68 5.68 5.385 5.385 0 0 1-6.024-.104l-9.256 13.048a21.664 21.664 0 0 0 15.885 3.578c11.805-1.95 19.793-13.101 17.843-24.906l-2.776-16.216 15.632-2.704 2.776 16.192a21.6 21.6 0 0 0 8.791 13.93c9.732 6.899 23.214 4.602 30.113-5.13l9.424-13.392 12.96 9.224-9.464 13.448a21.726 21.726 0 0 0-3.582 15.794C357.014 197.838 368.156 205.9 380 204l16.032-2.8 2.704 15.768-16.112 2.784a21.734 21.734 0 0 0-13.681 8.643c-7.033 9.729-4.848 23.316 4.881 30.349l13.376 9.488-9.16 13.056-13.328-9.456a21.297 21.297 0 0 0-23.76-.624l-.152.096.001.001c-7.351 4.628-11.277 13.293-9.809 21.855l15.776-2.68c-.377-2.184.9-4.556 2.77-5.749a5.363 5.363 0 0 1 5.934.149l19.896 14.104a7.999 7.999 0 0 0 4.632 1.472 7.805 7.805 0 0 0 1.32-.152 7.946 7.946 0 0 0 5.184-3.28l18.4-26.136a8 8 0 0 0-1.912-11.12l-19.88-14.112a5.6 5.6 0 0 1-2.088-5.936 5.457 5.457 0 0 1 4.352-4.24z" fill="#00b6b1" opacity="1" data-original="#000000"></path><path d="M310.928 264a39.506 39.506 0 0 0 32.244-16.596c12.651-17.775 8.498-42.44-9.276-55.092-17.775-12.652-42.44-8.498-55.092 9.276-12.652 17.775-8.498 42.44 9.276 55.092a39.277 39.277 0 0 0 22.848 7.32zm-3.872-63.64a24.285 24.285 0 0 1 4.144-.36c11.572.111 21.416 8.465 23.41 19.864 2.284 13.057-6.45 25.492-19.506 27.776a23.502 23.502 0 0 1-17.768-4 24.05 24.05 0 0 1-9.748-15.394c-2.324-13.076 6.392-25.561 19.468-27.886z" fill="#00b6b1" opacity="1" data-original="#000000"></path><path d="M281.928 342.848A30.825 30.825 0 0 0 303.936 352a30.81 30.81 0 0 0 21.992-9.152c12.113-12.203 12.113-31.893 0-44.096l-80.704-81.064c11.104-28.658 4.327-61.166-17.304-83-23.134-23.196-58.394-29.255-87.944-15.112a8 8 0 0 0-2.216 12.856l51.424 51.648-21.376 21.472-51.384-51.592a8 8 0 0 0-12.896 2.208 77.375 77.375 0 0 0-2.4 61.495c15.453 39.842 60.278 59.613 100.12 44.161zM129.872 233.12a61.89 61.89 0 0 1-15.952-58.976l48.176 48.384a8 8 0 0 0 5.672 2.36 8.002 8.002 0 0 0 5.664-2.36l32.672-32.8a8 8 0 0 0 0-11.288l-48.256-48.464a61.2 61.2 0 0 1 58.696 16c18.334 18.525 23.103 46.549 11.928 70.096a8 8 0 0 0 1.6 9.08l84.52 84.888c.14.134.278.271.413.41 5.829 6.004 5.688 15.596-.316 21.426-6.004 5.829-15.596 5.688-21.426-.316l-84.528-84.888a8 8 0 0 0-5.672-2.352 7.954 7.954 0 0 0-3.488.8c-23.426 11.195-51.368 6.385-69.703-12zM48 304h16v16H48zM448 128h16v16h-16z" fill="#00b6b1" opacity="1" data-original="#000000"></path></g></svg>