<svg xmlns="http://www.w3.org/2000/svg" version="1.1" xmlns:xlink="http://www.w3.org/1999/xlink" width="512" height="512" x="0" y="0" viewBox="0 0 512 512" style="enable-background:new 0 0 512 512" xml:space="preserve"><g><path d="m511.945 118.606-3.353-29.1a8.476 8.476 0 0 0-14.408-5.025l-29.84 29.781-29.283-4.123-4.131-29.227 29.84-29.782a8.452 8.452 0 0 0-5.023-14.378L426.558 33.4a8.392 8.392 0 0 0-6.94 2.423L382.067 73.3a8.475 8.475 0 0 0-2.477 6.235l.951 31.457-1.79 1.786-.02.018-99.631 99.441-49.572 49.473-.009.01-.809.808-31.509-.949a8.562 8.562 0 0 0-6.256 2.471l-37.521 37.45a8.409 8.409 0 0 0-2.454 6.973l3.353 29.1a8.476 8.476 0 0 0 14.408 5.026l29.84-29.782 29.283 4.123 4.131 29.226-29.839 29.782a8.451 8.451 0 0 0 5.023 14.378l29.188 3.35a8.494 8.494 0 0 0 .966.055 8.393 8.393 0 0 0 5.974-2.478l37.551-37.476a8.478 8.478 0 0 0 2.477-6.235l-.951-31.457 1.79-1.786.02-.018 99.632-99.44 49.571-49.473.009-.01.809-.808 31.511.949a8.432 8.432 0 0 0 6.254-2.471l37.521-37.45a8.408 8.408 0 0 0 2.454-6.972zm-49 30.8-31.511-.95a8.529 8.529 0 0 0-6.254 2.472l-3.128 3.122L268.7 307.109a8.484 8.484 0 0 0-2.446 6.2l.951 31.457-32.659 32.595-9.994-1.148 21.439-21.4a8.473 8.473 0 0 0 2.4-7.16l-5.454-38.576a8.5 8.5 0 0 0-7.2-7.193l-38.623-5.437a8.5 8.5 0 0 0-7.2 2.388l-21.438 21.4-1.149-9.975 32.658-32.6 31.511.95a8.417 8.417 0 0 0 6.254-2.472l3.128-3.122L394.187 120a8.475 8.475 0 0 0 2.477-6.234l-.951-31.457 32.659-32.595 9.994 1.148-21.439 21.4a8.469 8.469 0 0 0-2.4 7.16L419.982 118a8.5 8.5 0 0 0 7.2 7.193l38.623 5.437a8.515 8.515 0 0 0 7.2-2.388l21.438-21.4 1.15 9.975z" fill="#00b6b1" opacity="1" data-original="#000000"></path><path d="M375.954 157.815 275.624 257.95a8.008 8.008 0 0 0 11.337 11.314l100.33-100.135a8.008 8.008 0 1 0-11.337-11.314zM346.955 288.2a8.008 8.008 0 0 0-8.016 8v160.353a28.781 28.781 0 0 1-28.777 28.721H127.856a28.781 28.781 0 0 1-28.777-28.721V302.91a8.016 8.016 0 0 0-16.031 0v153.643a44.815 44.815 0 0 0 44.808 44.721h182.306a44.816 44.816 0 0 0 44.808-44.721V296.2a8.008 8.008 0 0 0-8.015-8zM91.063 101.789a8.008 8.008 0 0 0 8.016-8V55.447a28.781 28.781 0 0 1 28.777-28.721h182.306a28.781 28.781 0 0 1 28.777 28.721v31.627a8.016 8.016 0 0 0 16.031 0V55.447a44.816 44.816 0 0 0-44.808-44.721H127.856a44.815 44.815 0 0 0-44.808 44.721v38.342a8.008 8.008 0 0 0 8.015 8z" fill="#00b6b1" opacity="1" data-original="#000000"></path><path d="M236.247 469.015a8 8 0 1 0 0-16h-22.942a8 8 0 1 0 0 16zM177.532 47.107a8 8 0 1 0 0 16h94.488a8 8 0 1 0 0-16zM96.452 271.041l11.523 12.738a11.829 11.829 0 0 0 12.652 3.253 94.325 94.325 0 0 0 10.237-4.226 11.788 11.788 0 0 0 6.648-11.23l-.876-17.14a74.006 74.006 0 0 0 9.512-9.494l17.173.875a11.819 11.819 0 0 0 11.255-6.642 93.908 93.908 0 0 0 4.231-10.209 11.776 11.776 0 0 0-3.256-12.628l-12.766-11.5a73.509 73.509 0 0 0 0-13.417l12.765-11.5a11.772 11.772 0 0 0 3.258-12.625 94.185 94.185 0 0 0-4.234-10.217 11.782 11.782 0 0 0-11.253-6.636l-17.173.875a74.018 74.018 0 0 0-9.512-9.494l.876-17.14a11.788 11.788 0 0 0-6.654-11.232 94.049 94.049 0 0 0-10.229-4.223 11.82 11.82 0 0 0-12.651 3.249l-11.526 12.737a74.155 74.155 0 0 0-13.443 0l-11.525-12.74a11.831 11.831 0 0 0-12.65-3.251A94.242 94.242 0 0 0 48.6 113.45a11.789 11.789 0 0 0-6.649 11.23l.877 17.14c-1.721 1.431-3.388 2.95-4.973 4.531s-3.1 3.245-4.54 4.963l-17.173-.875a11.809 11.809 0 0 0-11.252 6.64A93.343 93.343 0 0 0 .654 167.29a11.772 11.772 0 0 0 3.256 12.627l12.765 11.5a73.509 73.509 0 0 0 0 13.417L3.91 216.338a11.774 11.774 0 0 0-3.257 12.626 93.508 93.508 0 0 0 4.233 10.212 11.815 11.815 0 0 0 11.253 6.641l17.173-.875a74.035 74.035 0 0 0 9.513 9.494l-.877 17.14a11.789 11.789 0 0 0 6.652 11.232 93.967 93.967 0 0 0 10.229 4.223 11.83 11.83 0 0 0 12.652-3.25l11.525-12.74a74.155 74.155 0 0 0 13.446 0zm-13.7-16.118a11.837 11.837 0 0 0-10.2 3.807l-11.071 12.233q-1.7-.657-3.378-1.4l.841-16.449a11.8 11.8 0 0 0-4.513-9.892 58.179 58.179 0 0 1-9.887-9.867 11.841 11.841 0 0 0-9.909-4.506l-16.484.84q-.738-1.668-1.4-3.372l12.258-11.044a11.8 11.8 0 0 0 3.815-10.173 57.393 57.393 0 0 1 0-13.935 11.8 11.8 0 0 0-3.814-10.183l-12.256-11.048q.657-1.7 1.4-3.372l16.481.84a11.852 11.852 0 0 0 9.911-4.5 58.178 58.178 0 0 1 9.887-9.867 11.8 11.8 0 0 0 4.514-9.89l-.847-16.457q1.673-.736 3.378-1.4l11.063 12.231a11.843 11.843 0 0 0 10.2 3.81 57.724 57.724 0 0 1 13.963 0 11.851 11.851 0 0 0 10.2-3.807l11.066-12.233q1.7.657 3.378 1.395l-.842 16.449a11.8 11.8 0 0 0 4.514 9.892 58.124 58.124 0 0 1 9.886 9.867 11.809 11.809 0 0 0 9.909 4.506l16.485-.84q.738 1.668 1.4 3.372l-12.254 11.041a11.793 11.793 0 0 0-3.817 10.186 57.493 57.493 0 0 1 0 13.935 11.793 11.793 0 0 0 3.814 10.183l12.257 11.043q-.658 1.7-1.4 3.372l-16.482-.84a11.844 11.844 0 0 0-9.911 4.5 58.124 58.124 0 0 1-9.886 9.867 11.8 11.8 0 0 0-4.515 9.89l.842 16.452q-1.673.737-3.378 1.394l-11.066-12.234a11.836 11.836 0 0 0-10.2-3.805 57.724 57.724 0 0 1-13.956.009z" fill="#00b6b1" opacity="1" data-original="#000000"></path><path d="M124.813 233.141a49.505 49.505 0 0 0 0-70.026 49.495 49.495 0 1 0 0 70.027zm-58.83-58.713a33.55 33.55 0 1 1 0 47.4 33.511 33.511 0 0 1 0-47.4z" fill="#00b6b1" opacity="1" data-original="#000000"></path></g></svg>