<svg xmlns="http://www.w3.org/2000/svg" version="1.1" xmlns:xlink="http://www.w3.org/1999/xlink" width="512" height="512" x="0" y="0" viewBox="0 0 512 512" style="enable-background:new 0 0 512 512" xml:space="preserve" class=""><g><path d="M215.682 444.379h-4.204c-3.628-14.487-7.167-28.752-10.538-43.062-6.455-27.415-13.072-44.91-49.832-55.338l-35.534-25.524c-6.105-4.384-13.412-5.895-20.309-4.788l-23.662-55.854c-16.024-37.825-36.854-33.41-42.852-31.153-14.777 5.553-23.45 25.13-18.198 41.073l30.166 91.561c.318.966.641 1.954.969 2.963 4.927 15.12 11.058 33.938 25.168 43.635l41.132 28.269c3.26 2.24 5.57 4.917 7.105 8.214h-.911c-4.516 0-8.749 1.748-11.921 4.922-3.172 3.175-4.917 7.411-4.913 11.928v.001l.024 24.95c.009 9.274 7.561 16.819 16.833 16.819l101.501.005c4.518 0 8.752-1.749 11.924-4.924s4.916-7.411 4.911-11.928l-.023-24.951c-.011-9.273-7.563-16.818-16.836-16.818zm-99.764-19.757-41.132-28.27C64.587 389.344 59.272 373.028 55 359.919c-.334-1.023-.661-2.027-.983-3.007l-30.166-91.561c-3.141-9.533 2.777-20.938 9.826-23.587 8.144-3.061 17.503 5.727 25.036 23.509l23.745 56.051a27.348 27.348 0 0 0-5.117 5.398c-8.812 12.269-6 29.42 6.268 38.232l48.562 34.884a7.002 7.002 0 0 0 8.168-11.372l-48.562-34.884c-5.999-4.309-7.374-12.695-3.064-18.694 4.309-6 12.696-7.375 18.694-3.064l36.542 26.248a7.005 7.005 0 0 0 2.231 1.064c31.167 8.555 35.336 20.769 41.134 45.388 3.126 13.272 6.39 26.48 9.732 39.852l-67.112-.004c-2.215-8.231-6.922-14.875-14.016-19.75zm101.807 63.559a2.787 2.787 0 0 1-2.02.818l-101.498-.007a2.838 2.838 0 0 1-2.834-2.832l-.024-24.951a2.786 2.786 0 0 1 2.835-2.837h.001l91.794.005.03.002.041-.002h9.632a2.84 2.84 0 0 1 2.835 2.833l.023 24.951a2.782 2.782 0 0 1-.815 2.02zm265.523-259.522c-6.001-2.256-26.827-6.671-42.852 31.153l-23.661 55.854c-6.894-1.101-14.206.404-20.31 4.788l-35.534 25.524c-36.758 10.427-43.376 27.923-49.832 55.338-3.392 14.405-6.924 28.634-10.537 43.062h-4.204c-9.273 0-16.825 7.545-16.834 16.819l-.024 24.951c-.004 4.517 1.741 8.753 4.913 11.928S291.779 503 296.301 503l101.492-.007c9.273 0 16.825-7.545 16.834-16.818l.023-24.95c.005-4.518-1.739-8.754-4.912-11.929-3.172-3.175-7.404-4.923-11.92-4.923h-.912c1.535-3.297 3.845-5.974 7.104-8.214l41.133-28.269c14.111-9.698 20.243-28.52 25.17-43.643.327-1.006.648-1.992.966-2.955l30.166-91.561c5.253-15.941-3.42-35.518-18.197-41.072zm-85.431 229.714a2.786 2.786 0 0 1 2.834 2.836v.001l-.023 24.952a2.837 2.837 0 0 1-2.835 2.831L296.295 489a2.79 2.79 0 0 1-2.836-2.838l.024-24.951a2.837 2.837 0 0 1 2.834-2.832h9.632l.041.002.03-.002zm90.332-193.022-30.166 91.561c-.322.978-.648 1.979-.98 2.999-4.271 13.113-9.588 29.432-19.788 36.442l-41.133 28.269c-7.095 4.876-11.802 11.521-14.016 19.752l-67.112.004c3.329-13.318 6.587-26.498 9.732-39.852 5.799-24.619 9.969-36.833 41.134-45.388a7.006 7.006 0 0 0 2.231-1.064l36.541-26.248c6.002-4.31 14.387-2.933 18.695 3.064 2.075 2.888 2.896 6.432 2.315 9.979-.581 3.546-2.492 6.642-5.38 8.716l-48.562 34.884a7.002 7.002 0 0 0-1.602 9.77 7.003 7.003 0 0 0 9.77 1.602l48.562-34.884c5.925-4.256 9.841-10.585 11.027-17.822s-.504-14.486-4.76-20.411a27.34 27.34 0 0 0-5.117-5.397l23.745-56.051c7.533-17.781 16.891-26.575 25.036-23.509 7.051 2.646 12.969 14.051 9.828 23.584zm-139.273 15.117c31.597-32.67 48.998-70.423 48.998-106.306V56.43a7.001 7.001 0 0 0-5.783-6.894c-31.616-5.581-62.934-18.811-93.081-39.324A7.006 7.006 0 0 0 295.073 9h-78.145a6.997 6.997 0 0 0-3.938 1.213c-30.147 20.512-61.464 33.743-93.081 39.324a7 7 0 0 0-5.783 6.894v117.731c0 35.882 17.4 73.635 48.996 106.306 25.835 26.713 59.777 48.428 90.797 58.086a6.999 6.999 0 0 0 4.162 0c31.021-9.66 64.963-31.374 90.795-58.086zM256 324.52c-28.316-9.305-59.118-29.284-82.813-53.785-29.058-30.046-45.061-64.343-45.061-96.573V62.222C159.098 55.894 189.652 42.719 219.07 23h73.859c29.419 19.719 59.974 32.894 90.944 39.222v111.939c0 32.231-16.003 66.528-45.062 96.573-23.691 24.501-54.493 44.481-82.811 53.786zM364.758 71.991c-25.269-7.06-50.272-18.46-74.317-33.883A7.002 7.002 0 0 0 286.662 37H225.34c-1.34 0-2.651.384-3.779 1.108-24.047 15.424-49.051 26.824-74.317 33.883a7 7 0 0 0-5.116 6.742v95.429c0 34.448 20.128 63.846 37.014 82.442 20.768 22.873 47.859 41.879 74.329 52.144a6.995 6.995 0 0 0 5.062 0c26.469-10.265 53.561-29.27 74.329-52.143 16.886-18.597 37.014-47.996 37.014-82.443V78.733a7.002 7.002 0 0 0-5.118-6.742zm-8.883 102.171c0 23.389-11.854 49.326-33.379 73.032-18.406 20.273-43.085 37.869-66.495 47.491-23.411-9.623-48.089-27.219-66.496-47.491-21.524-23.706-33.378-49.642-33.378-73.032V83.988c24.25-7.317 48.186-18.397 71.253-32.988h57.242c23.065 14.59 47.001 25.67 71.253 32.988zm-137.343-20.094c-6.062-9.862-19.019-12.953-28.88-6.892-4.777 2.937-8.125 7.558-9.427 13.012s-.401 11.089 2.535 15.866l24.384 39.684c3.016 4.907 7.77 8.219 13.386 9.326a21.42 21.42 0 0 0 4.143.401c4.808 0 9.648-1.584 13.741-4.571l85.323-62.274a20.799 20.799 0 0 0 8.358-13.671 20.8 20.8 0 0 0-3.757-15.577c-6.797-9.333-19.915-11.396-29.255-4.597l-68.038 49.659zm88.799-17.981a6.943 6.943 0 0 1 9.69 1.525 6.892 6.892 0 0 1 1.245 5.16 6.896 6.896 0 0 1-2.776 4.534l-85.33 62.279c-2.13 1.555-4.655 2.188-6.923 1.743-1.79-.353-3.191-1.336-4.166-2.92l-24.383-39.683-.001-.001a6.945 6.945 0 0 1-.845-5.285 6.956 6.956 0 0 1 3.141-4.335 6.999 6.999 0 0 1 9.621 2.295l16.481 26.823a6.998 6.998 0 0 0 10.09 1.989z" fill="#00b6b1" opacity="1" data-original="#000000" class=""></path></g></svg>