<svg xmlns="http://www.w3.org/2000/svg" version="1.1" xmlns:xlink="http://www.w3.org/1999/xlink" width="512" height="512" x="0" y="0" viewBox="0 0 512 512" style="enable-background:new 0 0 512 512" xml:space="preserve" class=""><g><path d="M460.067 94.753 259.151 8.646a8.013 8.013 0 0 0-6.303 0L51.933 94.753a8.002 8.002 0 0 0-4.849 7.354v162.459c0 59.769 20.451 114.469 59.141 158.185 37.293 42.138 89.997 70.951 148.401 81.131a8.035 8.035 0 0 0 2.748-.001c58.404-10.18 111.107-38.993 148.401-81.131 38.69-43.716 59.141-98.416 59.141-158.185V102.106c0-3.2-1.907-6.093-4.849-7.353zm-11.151 169.812c0 111.235-79.259 202.874-192.916 223.311C142.343 467.439 63.084 375.801 63.084 264.565V107.382L256 24.704l192.916 82.678zM252.849 41.284l-170.917 73.25a8.002 8.002 0 0 0-4.849 7.354v142.678c0 51.661 17.438 99.021 50.429 136.963 31.677 36.43 76.759 61.934 126.943 71.812a8.034 8.034 0 0 0 3.09 0c50.184-9.879 95.266-35.382 126.943-71.812 32.991-37.941 50.429-85.303 50.429-136.964V121.887c0-3.2-1.907-6.093-4.849-7.354l-170.917-73.25a8.015 8.015 0 0 0-6.302.001zM256 457.332c-20.669-4.211-39.888-11.011-57.354-20.009-25.269-22.034-30.634-55.473-13.636-85.319 9.411-16.524 24.283-35.575 46.634-59.748h48.712c22.35 24.172 37.223 43.224 46.635 59.748 16.998 29.847 11.632 63.287-13.64 85.321-17.466 8.997-36.684 15.796-57.351 20.007zm34.848-226.436-19.13 19.131h-31.435l-19.131-19.131c-2.099-2.099-2.099-5.646 0-7.745 1.808-1.809 4.685-2.116 6.842-.731 4.174 2.679 9.196 3.125 13.777 1.23 4.582-1.897 7.816-5.765 8.875-10.611.547-2.505 2.799-4.323 5.354-4.323 2.556 0 4.808 1.818 5.355 4.323 1.058 4.847 4.292 8.714 8.872 10.609 4.583 1.9 9.604 1.451 13.78-1.229 2.157-1.383 5.035-1.078 6.841.729 1.024 1.024 1.588 2.4 1.588 3.874s-.564 2.851-1.588 3.874zm-64.104 35.131h58.511c2.773 0 5.115 2.343 5.115 5.115s-2.342 5.114-5.115 5.114h-58.511c-2.773 0-5.115-2.343-5.115-5.115s2.342-5.114 5.115-5.114zm192.173-138.864v137.402c0 60.763-26.419 114.114-70.7 150.039 8.104-22.182 5.927-47.25-7.323-70.518-9.148-16.061-22.887-34.098-42.84-56.189 5.044-3.862 8.317-9.926 8.317-16.755 0-8.947-5.603-16.594-13.478-19.664l9.268-9.268c4.046-4.046 6.274-9.439 6.274-15.188 0-5.747-2.228-11.141-6.274-15.188-6.739-6.738-17.261-8.165-25.537-3.63-2.646-9.058-11.095-15.49-20.626-15.49-9.529.002-17.978 6.434-20.623 15.49-8.273-4.534-18.798-3.108-25.538 3.631-4.046 4.046-6.274 9.439-6.274 15.187s2.228 11.142 6.274 15.188l9.268 9.268c-7.874 3.07-13.477 10.716-13.477 19.663 0 6.829 3.273 12.893 8.317 16.756-19.954 22.093-33.694 40.129-42.84 56.19-13.251 23.267-15.427 48.335-7.324 70.517-44.28-35.925-70.699-89.276-70.699-150.038V127.163L256 57.342zM281.279 407.62c-4.031 4.661-10.316 7.969-17.529 9.374v2.78a8 8 0 0 1-16 0v-2.915c-11.257-2.525-19.861-10.27-22.528-20.967a8 8 0 0 1 15.525-3.871c1.771 7.101 9 9.652 14.975 9.723l.181.002c.193 0 .39-.001.583-.007 5.329-.127 10.43-1.97 12.691-4.585 1.118-1.293 1.511-2.746 1.272-4.711-.271-2.235-.907-7.471-15.931-9.937-21.659-3.556-26.723-14.983-27.158-23.943-.588-12.118 7.572-22.287 20.39-25.546v-3.057a8 8 0 0 1 16 0v2.984c8.297 2.016 16.127 7.404 20.269 17.267a8 8 0 0 1-14.752 6.196c-2.5-5.954-7.893-8.389-13.144-8.424a8.03 8.03 0 0 1-.581.006 17.582 17.582 0 0 0-3.402.427c-1.529.347-9.136 2.428-8.798 9.372.089 1.839.326 6.724 13.769 8.93 17.829 2.927 27.661 10.933 29.222 23.798.784 6.459-.964 12.374-5.054 17.104zm-61.852-283.657h-93.141a8 8 0 0 0-8 8v44.45a8 8 0 0 0 8 8h93.141c6.836 0 12.598-4.633 14.347-10.92l99.606.001 15.287 7.028a7.998 7.998 0 0 0 5.137.527l33.703-7.76a8 8 0 0 0 6.205-7.796v-22.612a8 8 0 0 0-6.205-7.796l-33.703-7.76a8.006 8.006 0 0 0-5.137.527l-15.287 7.028-99.607.001c-1.748-6.286-7.509-10.918-14.346-10.918zm-1.095 44.45h-84.045v-28.45h84.045zm116.8-17.531c1.154 0 2.293-.25 3.342-.731l14.399-6.62 24.84 5.719v9.878l-24.839 5.719-14.399-6.62a8.013 8.013 0 0 0-3.342-.731l-100.8-.001v-6.61zm39.523 36.198a8 8 0 0 0-10.183 11.361c12.035 20.353-.325 49.164-11.994 64.631l-3.843-3.844a8 8 0 0 0-13.563 4.443l-6.97 45.368a7.998 7.998 0 0 0 8.615 9.183l48.07-4.268a8.001 8.001 0 0 0 4.95-13.626l-4.125-4.125c16.545-19.541 23.857-44.113 19.665-67.109-3.56-19.509-14.72-34.824-30.622-42.014zm-5.782 103.7a8.002 8.002 0 0 0-1.75 8.679l-21.658 1.923 3.054-19.876a8.003 8.003 0 0 0 10.05-1.03c10.386-10.386 26.273-35.541 26.889-61.208 1.857 3.835 3.238 8.099 4.076 12.696 3.685 20.207-4.039 42.194-20.661 58.816z" fill="#00b6b1" opacity="1" data-original="#000000" class=""></path></g></svg>