<svg xmlns="http://www.w3.org/2000/svg" version="1.1" xmlns:xlink="http://www.w3.org/1999/xlink" width="512" height="512" x="0" y="0" viewBox="0 0 512 512" style="enable-background:new 0 0 512 512" xml:space="preserve" class=""><g><path d="M124.361 65.11c-6.642 11.936-10.44 25.671-10.44 40.3v29.846c59.263-46.555 143.17-46.555 202.433 0V105.41c0-45.846-37.166-83.011-83.012-83.011h-36.41c-18.529 0-35.636 6.076-49.449 16.337M136.989 213.59v-61.645l.021-.014-.001-.001a137.084 137.084 0 0 0-9.498 7.244c-4.906 4.094-12.338 4.148-17.267.234-5.253 4.975-8.538 12.006-8.538 19.813v8.221c0 15.078 12.223 27.302 27.302 27.302h8.011c-.008-.386-.03-.768-.03-1.154zM320.032 159.408c-4.929 3.914-12.361 3.861-17.267-.234a136.918 136.918 0 0 0-9.503-7.248l-.001.001.027.018v61.644c0 .387-.022.768-.029 1.153h8.011c15.078 0 27.302-12.223 27.302-27.302v-8.221c-.002-7.805-3.288-14.836-8.54-19.811zM76.441 489.602h134.911V317.893l-50.04 44.276c-2.816 2.491-7.254.492-7.254-3.267v-64.744h-39.203c-2.892 0-5.731.218-8.51.625" style="stroke-width:15;stroke-linecap:round;stroke-linejoin:round;stroke-miterlimit:10;" fill="none" stroke="#00b6b1" stroke-width="15" stroke-linecap="round" stroke-linejoin="round" stroke-miterlimit="10" data-original="#000000" class="" opacity="1"></path><path d="m175.639 269.697-15.413 11.23a15 15 0 0 0-6.167 12.124v65.852c0 3.76 4.438 5.759 7.254 3.267l50.04-44.276" style="stroke-width:15;stroke-linecap:round;stroke-linejoin:round;stroke-miterlimit:10;" fill="none" stroke="#00b6b1" stroke-width="15" stroke-linecap="round" stroke-linejoin="round" stroke-miterlimit="10" data-original="#000000" class="" opacity="1"></path><path d="M178.017 270.543v21.695a4.36 4.36 0 0 0 1.415 3.216l31.92 29.252" style="stroke-width:15;stroke-linecap:round;stroke-linejoin:round;stroke-miterlimit:10;" fill="none" stroke="#00b6b1" stroke-width="15" stroke-linecap="round" stroke-linejoin="round" stroke-miterlimit="10" data-original="#000000" class="" opacity="1"></path><path d="M136.989 151.945v61.645c0 33.163 26.884 60.046 60.046 60.046h14.536c.959-4.55 4.995-7.966 9.83-7.966h41.711c18.026-10.362 30.174-29.796 30.174-52.08v-61.644" style="stroke-width:15;stroke-linecap:round;stroke-linejoin:round;stroke-miterlimit:10;" fill="none" stroke="#00b6b1" stroke-width="15" stroke-linecap="round" stroke-linejoin="round" stroke-miterlimit="10" data-original="#000000" class="" opacity="1"></path><path d="M244.443 218.824c0 13.012-10.548 23.559-23.559 23.559h-11.493c-13.012 0-23.56-10.548-23.56-23.559M175.086 159.724v14.653M255.189 159.724v14.653M215.138 170.332c-6.204 0-11.234 5.029-11.234 11.234 0 6.204 5.03 11.234 11.234 11.234M320.271 138.418c-60.726-50.784-149.541-50.784-210.267 0-6.105 5.105-6.533 14.344-.906 19.971l.062.062c4.863 4.862 13.071 5.129 18.351.723 50.639-42.256 124.616-42.256 175.254 0 5.28 4.406 13.488 4.14 18.351-.723l.062-.062c5.626-5.627 5.198-14.866-.907-19.971zM211.352 454.969h-81.625c-8.325 0-15.073 6.749-15.073 15.073v19.56h96.698v-34.633zM408 265.67H221.401c-5.55 0-10.049 4.499-10.049 10.049v213.883h278.074c8.325 0 15.073-6.749 15.073-15.073v-198.81c0-5.55-4.499-10.049-10.049-10.049H443" style="stroke-width:15;stroke-linecap:round;stroke-linejoin:round;stroke-miterlimit:10;" fill="none" stroke="#00b6b1" stroke-width="15" stroke-linecap="round" stroke-linejoin="round" stroke-miterlimit="10" data-original="#000000" class="" opacity="1"></path><path d="M384.391 394.94h-52.929c-9.557 0-17.304-7.747-17.304-17.304h0c0-9.557 7.747-17.304 17.304-17.304h52.929c9.557 0 17.304 7.747 17.304 17.304h0c0 9.557-7.747 17.304-17.304 17.304zM40.498 317.906V337M80.096 389.622v-71.715M40.498 372v20.906M77.896 224.186v46.45a6.71 6.71 0 0 1-6.71 6.71H49.408a6.71 6.71 0 0 1-6.71-6.71v-46.448c0-2.465-2.566-4.082-4.798-3.035-18.447 8.654-31.071 27.66-30.372 49.541.87 27.237 22.704 49.562 49.917 50.994 30.454 1.602 55.65-22.618 55.65-52.722 0-21.145-12.435-39.379-30.388-47.807-2.237-1.051-4.811.556-4.811 3.027zM89.822 426.926c0-5.901-3.951-10.87-9.349-12.432 5.466-1.581 9.448-6.657 9.347-12.655-.12-7.137-6.242-12.726-13.379-12.726H52.885c-12.213 0-22.113 9.9-22.113 22.113v56.263c0 12.213 9.9 22.113 22.113 22.113h23.556c7.138 0 13.259-5.589 13.379-12.726.101-5.999-3.881-11.074-9.347-12.655 5.398-1.561 9.349-6.531 9.349-12.432 0-5.901-3.951-10.87-9.349-12.432 5.399-1.561 9.349-6.53 9.349-12.431z" style="stroke-width:15;stroke-linecap:round;stroke-linejoin:round;stroke-miterlimit:10;" fill="none" stroke="#00b6b1" stroke-width="15" stroke-linecap="round" stroke-linejoin="round" stroke-miterlimit="10" data-original="#000000" class="" opacity="1"></path></g></svg>