<svg xmlns="http://www.w3.org/2000/svg" version="1.1" xmlns:xlink="http://www.w3.org/1999/xlink" width="512" height="512" x="0" y="0" viewBox="0 0 512 512" style="enable-background:new 0 0 512 512" xml:space="preserve" class=""><g><path d="m4 317.982 56.378 32.549a8 8 0 0 0 10.928-2.931l2.031-3.518 32.65 19.116a31.815 31.815 0 0 0-1.163 8.525 31.288 31.288 0 0 0 9.2 22.279 31.409 31.409 0 0 0 22.279 9.214c.607 0 1.215-.024 1.822-.058-.034.6-.056 1.2-.056 1.81a31.411 31.411 0 0 0 31.479 31.479c.61 0 1.217-.022 1.822-.056a32.45 32.45 0 0 0-.057 1.822 31.411 31.411 0 0 0 31.479 31.48 31.915 31.915 0 0 0 6.592-.69 26.3 26.3 0 0 0 26.02 22.072 26.489 26.489 0 0 0 9.263-1.662l1.589 1.587a26.371 26.371 0 0 0 44.685-14.36 31.794 31.794 0 0 0 6.589.7 31.451 31.451 0 0 0 31.435-33.314c.6.034 1.2.055 1.81.055a31.429 31.429 0 0 0 31.436-33.3c.6.034 1.2.055 1.81.055a31.51 31.51 0 0 0 25.732-49.652l44.133-25.376 6.808 11.792a8 8 0 0 0 10.928 2.928L508 317.982a8 8 0 0 0 2.928-10.928l-73.941-128.069a8 8 0 0 0-10.927-2.928l-56.378 32.55a8 8 0 0 0-2.928 10.928l6.539 11.326-9.346 3.539a19.014 19.014 0 0 1-13.408.271L288.224 213.9a27.47 27.47 0 0 0-21.235 1.448l-12.4 6.112c-.117-.07-.23-.145-.353-.21l-14.771-7.8a27.745 27.745 0 0 0-25.91-.158l-19.718 10.1a10.3 10.3 0 0 1-4.888 1.309l-47 .538 3.294-5.707a8 8 0 0 0-2.928-10.928L85.94 176.057a8 8 0 0 0-10.927 2.928L1.072 307.054A8 8 0 0 0 4 317.982zm121.337 64.71a15.575 15.575 0 0 1 0-21.932l28.132-28.132a15.508 15.508 0 0 1 21.93 21.933l-28.13 28.131a15.528 15.528 0 0 1-21.932 0zm33.246 33.245a15.575 15.575 0 0 1-.007-21.925l.007-.007 28.132-28.131a15.508 15.508 0 0 1 21.931 21.931l-28.132 28.132a15.526 15.526 0 0 1-21.931 0zm33.245 33.245a15.525 15.525 0 0 1 0-21.932l28.131-28.131a15.508 15.508 0 0 1 21.932 21.932 8 8 0 0 0-.743.871 26.481 26.481 0 0 0-2.394 2.112l-22.012 22.01a26.686 26.686 0 0 0-2.116 2.4 8.041 8.041 0 0 0-.867.74 15.525 15.525 0 0 1-21.931-.002zm36.23 22.875a10.4 10.4 0 0 1 0-14.7l22.01-22.01a10.393 10.393 0 0 1 14.7 14.7l-22.01 22.01a10.447 10.447 0 0 1-14.7 0zm44.209 7.633a10.4 10.4 0 0 1-14.6.086l14.689-14.689a10.4 10.4 0 0 1-.089 14.603zm36.233-22.874a15.525 15.525 0 0 1-21.93 0 7.9 7.9 0 0 0-.872-.743 26.481 26.481 0 0 0-2.112-2.394l-1.531-1.531a26.353 26.353 0 0 0-20.331-35.474 31.749 31.749 0 0 0 .143-12.493 15.524 15.524 0 0 1 18.5 2.572l28.133 28.132a15.524 15.524 0 0 1 0 21.931zm33.246-33.245a15.577 15.577 0 0 1-21.93 0l-28.133-28.132A15.508 15.508 0 0 1 313.6 373.5v.006l28.132 28.131a15.525 15.525 0 0 1 .009 21.934zm33.244-33.245a15.523 15.523 0 0 1-21.929 0l-28.133-28.132a15.508 15.508 0 0 1 21.931-21.931l28.128 28.137a15.576 15.576 0 0 1 0 21.931zm52.147-196.412 65.94 114.211-42.522 24.55-65.946-114.212zM274.063 229.7a11.33 11.33 0 0 1 9.1-.62l62.316 20.772a35.149 35.149 0 0 0 24.136-.487L381.4 244.9l44.489 77.055-47.439 27.276-20.281-20.282a31.385 31.385 0 0 0-7.269-5.418l-63.775-47.811a26.418 26.418 0 0 0-13.941-5.2l-9.371-.827a27.66 27.66 0 0 0-26.5 13.531l-12.423 20.429a1.837 1.837 0 0 1-1.957.944l-18.9-2.38a2 2 0 0 1-1.674-2.527l9.9-35.1a11.412 11.412 0 0 1 6.244-7.506zm-84.93 11a26.137 26.137 0 0 0 12-3.067l19.718-10.1A11.634 11.634 0 0 1 232 227.6l4.891 2.581-25.466 12.553a27.307 27.307 0 0 0-14.569 17.513l-9.9 35.1a18 18 0 0 0 15.074 22.746l18.9 2.379a17.78 17.78 0 0 0 17.627-8.5l12.424-20.428a11.8 11.8 0 0 1 11.422-5.908l9.37.827a10.465 10.465 0 0 1 5.751 2.064l45.365 34.009a31.418 31.418 0 0 0-18.483 28.7c0 .606.022 1.209.055 1.81a31.429 31.429 0 0 0-33.3 31.435c0 .607.022 1.209.055 1.81a31.586 31.586 0 0 0-16.264 3.435 30.86 30.86 0 0 0-1.751-1.913 31.435 31.435 0 0 0-24.1-9.156c.034-.6.055-1.2.055-1.81a31.43 31.43 0 0 0-33.285-31.447 31.431 31.431 0 0 0-31.435-33.289 31.289 31.289 0 0 0-22.28 9.2L114.075 349.4l-32.738-19.171 51.314-88.88zM84.868 193.914l42.522 24.549-65.941 114.212-42.521-24.55zM256 200.789a93.751 93.751 0 1 0-93.75-93.751A93.858 93.858 0 0 0 256 200.789zm0-171.5a77.751 77.751 0 1 1-77.75 77.75A77.839 77.839 0 0 1 256 29.288zm-35.588 78.126a8 8 0 0 1 12.943-9.407L245.6 114.86l40.763-33.392a8 8 0 0 1 10.139 12.377l-47.321 38.764a8 8 0 0 1-11.541-1.485z" fill="#00b6b1" opacity="1" data-original="#000000" class=""></path></g></svg>