<svg xmlns="http://www.w3.org/2000/svg" version="1.1" xmlns:xlink="http://www.w3.org/1999/xlink" width="512" height="512" x="0" y="0" viewBox="0 0 512 512" style="enable-background:new 0 0 512 512" xml:space="preserve" class=""><g><path fill="#00b6b1" d="M256 26c127.03 0 230 102.97 230 230S383.03 486 256 486H26l64.7-70.09C50.65 374.52 26 318.14 26 256 26 128.97 128.97 26 256 26z" opacity="1" data-original="#ff4a4a" class=""></path><g fill="#f9f2f8"><path d="M346 276c0 22.079-17.919 40-40 40v-50h-30v-60h70zM226 266v10c0 11.04-4.48 21.04-11.72 28.28S197.04 316 186 316v-50h-30v-60h70z" fill="#f9f2f8" opacity="1" data-original="#f9f2f8" class=""></path></g></g></svg>