<svg xmlns="http://www.w3.org/2000/svg" version="1.1" xmlns:xlink="http://www.w3.org/1999/xlink" width="512" height="512" x="0" y="0" viewBox="0 0 510 510" style="enable-background:new 0 0 512 512" xml:space="preserve" fill-rule="evenodd" class=""><g><path d="M266.312 351.854H56.376c-11.174 0-20.232-9.059-20.232-20.233v-64.388c0-11.175 9.058-20.233 20.232-20.233H214.36c4.416 0 8 3.585 8 8s-3.584 8-8 8H56.376a4.233 4.233 0 0 0-4.232 4.233v64.388a4.233 4.233 0 0 0 4.232 4.233h224.427a95.45 95.45 0 0 1 32.512-18.824v-29.198c0-4.415 3.584-8 8-8 4.415 0 8 3.585 8 8v25.297a95.99 95.99 0 0 1 14.578-1.108c52.702 0 95.49 42.787 95.49 95.489 0 52.703-42.788 95.49-95.49 95.49-20.223 0-38.986-6.3-54.432-17.043H56.376c-11.174 0-20.232-9.059-20.232-20.233v-64.388c0-11.175 9.058-20.233 20.232-20.233h195.732a95.153 95.153 0 0 1 14.204-29.249zm5.363 118.103a95.493 95.493 0 0 1-17.024-28.427h-52.935c-4.415 0-8-3.585-8-8s3.585-8 8-8h48.388a96.429 96.429 0 0 1-1.139-28.427H56.376a4.233 4.233 0 0 0-4.232 4.233v64.388a4.233 4.233 0 0 0 4.232 4.233zM86.087 423.224c5.688 0 10.306 4.618 10.306 10.306s-4.618 10.305-10.306 10.305c-5.687 0-10.305-4.617-10.305-10.305s4.618-10.306 10.305-10.306zm39.605 0c5.687 0 10.305 4.618 10.305 10.306s-4.618 10.305-10.305 10.305c-5.688 0-10.306-4.617-10.306-10.305s4.618-10.306 10.306-10.306zm39.604 0c5.688 0 10.305 4.618 10.305 10.306s-4.617 10.305-10.305 10.305-10.306-4.617-10.306-10.305 4.618-10.306 10.306-10.306zm178.597-95.203c-43.872 0-79.49 35.618-79.49 79.489 0 43.872 35.618 79.49 79.49 79.49 43.871 0 79.49-35.618 79.49-79.49 0-43.871-35.619-79.489-79.49-79.489zm7.003 24.201c28.447 3.459 50.515 27.721 50.515 57.096 0 31.745-25.773 57.518-57.518 57.518s-57.518-25.773-57.518-57.518c0-4.416 3.584-8 8-8 4.415 0 8 3.584 8 8 0 22.914 18.603 41.518 41.518 41.518 22.914 0 41.518-18.604 41.518-41.518 0-19.472-13.433-35.831-31.53-40.307l2.295 1.502c3.693 2.419 4.728 7.382 2.309 11.076s-7.382 4.728-11.075 2.309l-23.189-15.186a8 8 0 0 1-1.063-12.552l20.303-18.872c3.234-3.006 8.3-2.821 11.306.413s2.821 8.3-.413 11.306zM200.227 104.963c.322-46.494 38.101-84.091 84.67-84.091a84.703 84.703 0 0 1 23.57 3.327 8.005 8.005 0 0 1 5.461 9.909 8.004 8.004 0 0 1-9.908 5.461 68.704 68.704 0 0 0-19.123-2.697c-37.932 0-68.672 30.757-68.672 68.689 0 1.321.03 2.643.106 3.949a8 8 0 0 1-4.95 7.865c-14.589 5.986-24.962 20.353-24.962 37.037 0 21.979 17.992 39.968 39.985 39.968h191.467c21.993 0 39.985-17.989 39.985-39.968 0-18.007-12.214-33.874-29.571-38.584a8 8 0 0 1-5.858-6.861c-3.23-29.87-27.93-53.294-58.363-54.511a8.003 8.003 0 0 1-7.674-8.313 8.003 8.003 0 0 1 8.313-7.674c36.61 1.464 66.642 28.403 72.889 63.574 21.545 8.142 36.264 28.97 36.264 52.369 0 30.776-25.189 55.968-55.985 55.968H226.404c-30.795 0-55.985-25.192-55.985-55.968 0-21.353 12.117-40.014 29.808-49.449zm47.285 119.313a8.004 8.004 0 0 1 10.928-2.929 8.004 8.004 0 0 1 2.928 10.929l-23.251 40.272c-2.207 3.824-7.104 5.136-10.928 2.928s-5.136-7.104-2.928-10.928zm39.662 0c2.207-3.824 7.104-5.136 10.928-2.929a8.004 8.004 0 0 1 2.928 10.929l-23.251 40.272a8.003 8.003 0 0 1-10.928 2.928 8.004 8.004 0 0 1-2.929-10.928zm79.323 0c2.207-3.824 7.104-5.136 10.928-2.929a8.004 8.004 0 0 1 2.928 10.929l-23.251 40.272a8.003 8.003 0 0 1-10.928 2.928 8.004 8.004 0 0 1-2.929-10.928zm-39.662 0a8.004 8.004 0 0 1 10.928-2.929 8.004 8.004 0 0 1 2.928 10.929l-23.251 40.272c-2.207 3.824-7.104 5.136-10.928 2.928s-5.136-7.104-2.928-10.928zm79.323 0a8.004 8.004 0 0 1 10.928-2.929 8.004 8.004 0 0 1 2.928 10.929l-23.251 40.272c-2.207 3.824-7.104 5.136-10.928 2.928s-5.136-7.104-2.928-10.928zM352.623 15.465l-3.289 56.474h44.793a8.001 8.001 0 0 1 6.222 13.029L325.15 177.99a8 8 0 0 1-14.167-5.957l6.756-57.888h-44.286a8.001 8.001 0 0 1-6.305-12.924l71.183-91.145a8 8 0 0 1 14.292 5.389zm-17.464 24.667-45.308 58.013h36.876a8.001 8.001 0 0 1 7.946 8.927l-4.595 39.372 47.295-58.505h-36.518a7.999 7.999 0 0 1-7.987-8.465zM86.087 289.121c5.688 0 10.306 4.618 10.306 10.306s-4.618 10.305-10.306 10.305c-5.687 0-10.305-4.617-10.305-10.305s4.618-10.306 10.305-10.306zm39.605 0c5.687 0 10.305 4.618 10.305 10.306s-4.618 10.305-10.305 10.305c-5.688 0-10.306-4.617-10.306-10.305s4.618-10.306 10.306-10.306zm39.604 0c5.688 0 10.305 4.618 10.305 10.306s-4.617 10.305-10.305 10.305-10.306-4.617-10.306-10.305 4.618-10.306 10.306-10.306zm36.42 18.306c-4.415 0-8-3.585-8-8s3.585-8 8-8h85.609c4.415 0 8 3.585 8 8s-3.585 8-8 8z" fill="#00b6b1" opacity="1" data-original="#000000"></path></g></svg>