<svg xmlns="http://www.w3.org/2000/svg" version="1.1" xmlns:xlink="http://www.w3.org/1999/xlink" width="512" height="512" x="0" y="0" viewBox="0 0 512 512" style="enable-background:new 0 0 512 512" xml:space="preserve" class=""><g><path d="M235.011 170.875c32.321 0 58.616-26.295 58.616-58.616s-26.295-58.617-58.616-58.617-58.616 26.296-58.616 58.617 26.295 58.616 58.616 58.616zm0-101.233c23.499 0 42.616 19.118 42.616 42.617s-19.117 42.616-42.616 42.616-42.616-19.117-42.616-42.616 19.117-42.617 42.616-42.617zM498.97 360.597l-34.943-60.523V129.601c0-23.064-18.765-41.829-41.829-41.829h-98.431l-1.753-.675a89.893 89.893 0 0 0-7.694-18.56l5.279-11.886a8 8 0 0 0-1.654-8.904l-18.423-18.423a8.005 8.005 0 0 0-8.904-1.654l-11.892 5.281a89.899 89.899 0 0 0-18.552-7.691l-4.671-12.134A7.997 7.997 0 0 0 248.038 8h-26.053a7.999 7.999 0 0 0-7.466 5.126l-4.671 12.134a89.93 89.93 0 0 0-18.553 7.691l-11.891-5.281a8 8 0 0 0-8.903 1.654l-18.424 18.423a8 8 0 0 0-1.655 8.904l5.281 11.89a89.95 89.95 0 0 0-7.693 18.555l-1.756.676h-96.44c-23.064 0-41.828 18.765-41.828 41.829v232.725c0 23.064 18.764 41.829 41.828 41.829h109.043V441.9h-43.492c-20.318 0-36.849 13.929-36.849 31.049V496a8 8 0 0 0 8 8h298.98a8 8 0 0 0 8-8v-23.051c0-17.12-16.53-31.049-36.849-31.049h-43.492v-35.747c6.798 6.534 15.858 10.253 25.678 10.253h127.915c13.45 0 25.496-6.954 32.223-18.604 6.725-11.647 6.725-25.556-.001-37.205zm-50.943-230.996v142.76l-12.288-21.283V128.752c0-6.998-5.693-12.691-12.692-12.691H339.27v-12.289h82.928c14.242-.001 25.829 11.586 25.829 25.829zm-100.45 160.042a26.872 26.872 0 0 1-12.937 3.328c-11.265 0-21.391-7.048-25.797-17.954a8.001 8.001 0 0 0-7.418-5.004H168.597a8 8 0 0 0-7.418 5.004c-4.406 10.906-14.532 17.954-25.797 17.954a26.968 26.968 0 0 1-14.974-4.539h19.044a7.999 7.999 0 0 0 6.994-4.117l9.391-16.916a7.999 7.999 0 0 0 0-7.766l-9.391-16.915a7.999 7.999 0 0 0-6.994-4.117H120.41c4.39-2.917 9.549-4.539 14.973-4.539 11.265 0 21.391 7.048 25.797 17.954a8.001 8.001 0 0 0 7.418 5.004h132.828a8 8 0 0 0 7.418-5.004c4.406-10.906 14.531-17.954 25.798-17.953 5.424 0 10.582 1.62 14.973 4.538H330.57a7.999 7.999 0 0 0-6.994 4.117l-9.391 16.915a7.999 7.999 0 0 0 0 7.766l9.391 16.916a7.999 7.999 0 0 0 6.994 4.117h17.707zm9.937-17.211h-22.235l-4.949-8.916 4.949-8.915h31.499c.363 0 .721-.028 1.075-.076zm16.921-28.102a8.058 8.058 0 0 0-.466-1.235c-7.528-15.441-22.599-25.033-39.327-25.032h-.003c-16.003 0-30.496 8.852-38.256 22.957H173.64c-7.76-14.106-22.254-22.958-38.259-22.958-16.729.001-31.8 9.594-39.327 25.033a8 8 0 0 0 7.19 11.506h31.499l4.949 8.915-4.949 8.916h-31.499a8 8 0 0 0-7.19 11.506c7.528 15.441 22.598 25.033 39.328 25.033 16.004 0 30.498-8.852 38.258-22.958h122.742c7.76 14.106 22.254 22.958 38.258 22.958.607 0 1.21-.039 1.815-.065l-12.854 22.264H52.274V132.061h82.255c.426.266.87.507 1.351.691l12.129 4.668a89.908 89.908 0 0 0 7.694 18.559l-5.28 11.887a8 8 0 0 0 1.655 8.904l18.424 18.423a8.002 8.002 0 0 0 8.903 1.654l11.892-5.281a89.844 89.844 0 0 0 18.552 7.691l4.671 12.134a7.998 7.998 0 0 0 7.466 5.126h26.054a8 8 0 0 0 7.466-5.127l4.668-12.129a89.858 89.858 0 0 0 18.56-7.693l11.886 5.279a8.001 8.001 0 0 0 8.904-1.655l18.423-18.424a7.999 7.999 0 0 0 1.654-8.903l-5.28-11.891a89.88 89.88 0 0 0 7.69-18.553l12.134-4.67a8.043 8.043 0 0 0 1.349-.69h84.247v103.188c-5.129-2.613-10.893-4.033-16.948-4.033-11.177 0-21.369 4.812-28.358 13.114zM157.577 100.558a7.996 7.996 0 0 0 4.908-5.614 73.996 73.996 0 0 1 9.003-21.713 7.998 7.998 0 0 0 .5-7.442l-4.713-10.611 10.655-10.654 10.611 4.713a8.002 8.002 0 0 0 7.441-.499 74.065 74.065 0 0 1 21.713-9.003 7.996 7.996 0 0 0 5.614-4.908L227.477 24h15.068l4.167 10.825a7.997 7.997 0 0 0 5.613 4.908 74.02 74.02 0 0 1 21.713 9.003 8.002 8.002 0 0 0 7.441.499l10.612-4.713 10.654 10.654-4.711 10.607a8 8 0 0 0 .5 7.443 73.963 73.963 0 0 1 9.003 21.717 8 8 0 0 0 4.909 5.614l10.822 4.166v15.067l-10.825 4.167a7.998 7.998 0 0 0-4.909 5.614 74.045 74.045 0 0 1-9.002 21.713 8.002 8.002 0 0 0-.499 7.441l4.712 10.611-10.654 10.655-10.606-4.711a7.993 7.993 0 0 0-7.442.5 74.07 74.07 0 0 1-21.72 9.004 7.998 7.998 0 0 0-5.613 4.909l-4.165 10.82h-15.068l-4.167-10.825a7.996 7.996 0 0 0-5.614-4.908 74.01 74.01 0 0 1-21.712-9.003 7.994 7.994 0 0 0-7.441-.499l-10.612 4.713-10.655-10.654 4.712-10.607a7.998 7.998 0 0 0-.5-7.442 74.014 74.014 0 0 1-9.003-21.718 7.999 7.999 0 0 0-4.91-5.614l-10.821-4.165v-15.068zM23.986 362.325V129.601c0-14.242 11.586-25.829 25.828-25.829h80.938v12.289H48.965c-6.998 0-12.691 5.693-12.691 12.691V339.17a8 8 0 0 0 8 8h270.09l-7.752 13.427c-4.945 8.563-6.241 18.347-3.915 27.558H49.814c-14.242-.001-25.828-11.588-25.828-25.83zm353.511 110.624V488H94.516v-15.051c0-8.157 9.548-15.049 20.849-15.049h241.283c11.301 0 20.849 6.892 20.849 15.049zM174.857 441.9v-37.746h122.299V441.9zm310.258-52.096c-3.834 6.64-10.7 10.604-18.366 10.604H338.833c-7.666 0-14.532-3.964-18.366-10.604-3.833-6.64-3.833-14.567 0-21.207l63.959-110.777c3.833-6.64 10.698-10.604 18.364-10.604s14.532 3.964 18.366 10.604l63.957 110.776c3.834 6.64 3.834 14.569.002 21.208zm-85.064-31.654a15.59 15.59 0 0 0 15.636-15.081l1.933-53.521c.157-4.348-1.356-8.301-4.374-11.427-3.018-3.13-6.912-4.785-11.262-4.785h-3.865c-4.351 0-8.245 1.655-11.262 4.783-3.018 3.129-4.53 7.079-4.375 11.428l1.933 53.522a15.591 15.591 0 0 0 15.636 15.081zm1.566-68.813-1.565 43.357-1.564-43.358zm-1.566 70.299c-9.812 0-17.796 7.982-17.796 17.795s7.983 17.795 17.796 17.795 17.795-7.982 17.795-17.795-7.982-17.795-17.795-17.795zm0 19.59c-.99 0-1.796-.805-1.796-1.795s.806-1.795 1.796-1.795c.989 0 1.795.805 1.795 1.795s-.805 1.795-1.795 1.795z" fill="#00b6b1" opacity="1" data-original="#000000" class=""></path></g></svg>