<svg xmlns="http://www.w3.org/2000/svg" version="1.1" xmlns:xlink="http://www.w3.org/1999/xlink" width="512" height="512" x="0" y="0" viewBox="0 0 496 496" style="enable-background:new 0 0 512 512" xml:space="preserve" class=""><g><path d="M480 64c8.824 0 16-7.176 16-16V15.968l-3.528-2.376C479.248 4.696 463.872 0 448 0c-28.832 0-54.912 15.2-69.208 40H368c0-17.648-14.352-32-32-32-9.608 0-18.128 4.336-24 11.056C306.128 12.336 297.608 8 288 8s-18.128 4.336-24 11.056C258.128 12.336 249.608 8 240 8s-18.128 4.336-24 11.056C210.128 12.336 201.608 8 192 8c-17.648 0-32 14.352-32 32h-42.792C102.912 15.2 76.832 0 48 0 32.128 0 16.752 4.696 3.528 13.592L0 15.968V48c0 8.824 7.176 16 16 16h40v32H16c-8.824 0-16 7.176-16 16v32.032l3.528 2.376C16.752 155.304 32.128 160 48 160c5.616 0 11.064-.76 16.408-1.872l-8.736 8.736 40.776 40.784A168.417 168.417 0 0 0 89.6 224H32v112h57.592a168.926 168.926 0 0 0 6.848 16.352l-40.776 40.784 79.184 79.192 40.784-40.784a167.98 167.98 0 0 0 16.36 6.856V496h112v-57.592a167.98 167.98 0 0 0 16.36-6.856l40.784 40.784 79.184-79.192-40.776-40.784a169.77 169.77 0 0 0 6.848-16.352H464V224h-57.592a168.417 168.417 0 0 0-6.848-16.352l40.776-40.784-8.704-8.712C436.952 159.264 442.4 160 448 160c15.872 0 31.248-4.696 44.472-13.592l3.528-2.376V112c0-8.824-7.176-16-16-16h-40V64h40zM320 40c0-8.824 7.176-16 16-16s16 7.176 16 16v96c0 8.824-7.176 16-16 16s-16-7.176-16-16V40zm-48 0c0-8.824 7.176-16 16-16s16 7.176 16 16v96c0 8.824-7.176 16-16 16s-16-7.176-16-16V40zm-48 0c0-8.824 7.176-16 16-16s16 7.176 16 16v96c0 8.824-7.176 16-16 16s-16-7.176-16-16V40zm-48 60V40c0-8.824 7.176-16 16-16s16 7.176 16 16v96c0 6.976-4.52 13.016-10.904 15.16L176 132.408V100zm58.688 105.976 10.624-11.96-35.52-31.576c2.312-1.56 4.464-3.32 6.288-5.408C221.952 163.704 230.44 168 240 168c9.608 0 18.128-4.336 24-11.056 5.872 6.72 14.392 11.056 24 11.056s18.128-4.336 24-11.056c5.872 6.72 14.392 11.056 24 11.056 5.856 0 11.272-1.696 16-4.448v33.136l-40 40V312h-16v16h16v33.808C294.328 375.656 272.144 384 248 384s-46.328-8.344-64-22.192V328h96v-16h-96v-75.632l-55.808-48.832A23.978 23.978 0 0 1 120 169.48V100c0-11.024 8.968-20 20-20s20 8.976 20 20v39.592l74.688 66.384zm105.216 25.432C347.8 246.312 352 262.872 352 280c0 25.208-9.024 48.336-24 66.36V243.312l11.904-11.904zM168 243.632V346.36c-14.976-18.024-24-41.152-24-66.36 0-16.544 3.928-32.792 11.4-47.392l12.6 11.024zM48 144a63.365 63.365 0 0 1-32-8.648V112h56V48H16V24.648A63.365 63.365 0 0 1 48 16c24.408 0 46.352 13.632 57.264 35.568L107.48 56H160v14.096C154.272 66.256 147.4 64 140 64c-19.848 0-36 16.152-36 36v10.592C92.736 131.216 71.568 144 48 144zm332 60.568 2.728 5.208c4.24 8.12 7.712 16.4 10.296 24.624l1.768 5.6H448v80h-53.208l-1.768 5.6c-2.576 8.184-6.04 16.472-10.304 24.632L380 355.44l37.704 37.704-56.56 56.568L323.432 412l-5.2 2.72c-8.168 4.264-16.448 7.728-24.624 10.296l-5.6 1.76V480H208v-53.216l-5.6-1.76c-8.176-2.568-16.464-6.032-24.624-10.296l-5.2-2.72-37.712 37.704-56.56-56.568 37.704-37.704-2.72-5.208c-4.264-8.16-7.728-16.448-10.304-24.632l-1.776-5.6H48v-80h53.208l1.768-5.6c2.584-8.224 6.056-16.504 10.296-24.624l2.728-5.208-37.704-37.704L104 141.16v28.32a39.998 39.998 0 0 0 13.664 30.104l25.432 22.256C133.248 239.576 128 259.576 128 280c0 66.168 53.832 120 120 120s120-53.832 120-120c0-21.424-5.616-42.112-16.296-60.392L368 203.312V120h2.848l46.856 46.864L380 204.568zM480 112v23.352A63.365 63.365 0 0 1 448 144c-24.408 0-46.352-13.632-57.264-35.568L388.52 104H368V56h20.52l2.208-4.432C401.648 29.632 423.592 16 448 16a63.365 63.365 0 0 1 32 8.648V48h-56v64h56z" fill="#000000" opacity="1" data-original="#000000" class=""></path></g></svg>