<svg xmlns="http://www.w3.org/2000/svg" version="1.1" xmlns:xlink="http://www.w3.org/1999/xlink" width="512" height="512" x="0" y="0" viewBox="0 0 64 64" style="enable-background:new 0 0 512 512" xml:space="preserve" class=""><g><g data-name="Layer 32"><path d="M50 1H14a6.006 6.006 0 0 0-6 6v50a6.006 6.006 0 0 0 6 6h36a6.006 6.006 0 0 0 6-6V7a6.006 6.006 0 0 0-6-6Zm4 56a4 4 0 0 1-4 4H14a4 4 0 0 1-4-4V7a4 4 0 0 1 4-4h36a4 4 0 0 1 4 4Z" fill="#00b6b1" opacity="1" data-original="#000000" class=""></path><path d="M51 7H13a1 1 0 0 0-1 1v46a1 1 0 0 0 1 1h38a1 1 0 0 0 1-1V8a1 1 0 0 0-1-1Zm-1 46H14V9h36Z" fill="#00b6b1" opacity="1" data-original="#000000" class=""></path><path d="M25 30a6.006 6.006 0 0 0-6 6 5.908 5.908 0 0 0 .371 2.026 1 1 0 0 0 1.649.369L23.414 36H25v1.586l-2.395 2.394a1 1 0 0 0 .369 1.648A5.954 5.954 0 0 0 31 36a5.637 5.637 0 0 0-.181-1.405l.681-.681 7.793 7.793a1 1 0 0 0 1.414 0l4-4a1 1 0 0 0 0-1.414L36.914 28.5l.681-.681A5.727 5.727 0 0 0 39 28a6.006 6.006 0 0 0 6-6 5.908 5.908 0 0 0-.371-2.026 1 1 0 0 0-1.649-.369L40.586 22H39v-1.586l2.4-2.394a1 1 0 0 0-.369-1.648A5.954 5.954 0 0 0 33 22a5.637 5.637 0 0 0 .181 1.405L32 24.586l-1-1V22a1 1 0 0 0-.293-.707l-5-5a1 1 0 0 0-1.414 0l-5 5a1 1 0 0 0 0 1.414l5 5A1 1 0 0 0 25 28h1.586l1 1-1.181 1.181A5.727 5.727 0 0 0 25 30Zm15 9.586L32.414 32 35 29.414 42.586 37ZM35.02 24.4a1 1 0 0 0 .234-1.046A3.934 3.934 0 0 1 35 22a4.006 4.006 0 0 1 3.562-3.976l-1.269 1.269A1 1 0 0 0 37 20v3a1 1 0 0 0 1 1h3a1 1 0 0 0 .707-.293l1.27-1.269A4.007 4.007 0 0 1 39 26a3.947 3.947 0 0 1-1.349-.253 1 1 0 0 0-1.046.233l-1.147 1.148a.977.977 0 0 0-.916 0L33.414 26ZM25.414 26l-4-4L25 18.414l4 4V24a1 1 0 0 0 .293.707l3.793 3.793-1.586 1.586-3.793-3.793A1 1 0 0 0 27 26Zm1.986 6.02 1.6-1.606 1.128 1.128a.977.977 0 0 0 0 .916L28.98 33.6a1 1 0 0 0-.234 1.046A3.934 3.934 0 0 1 29 36a4.006 4.006 0 0 1-3.562 3.976l1.269-1.269A1 1 0 0 0 27 38v-3a1 1 0 0 0-1-1h-3a1 1 0 0 0-.707.293l-1.27 1.269A4.007 4.007 0 0 1 25 32a3.947 3.947 0 0 1 1.349.253 1 1 0 0 0 1.051-.233ZM29 57h6v2h-6z" fill="#00b6b1" opacity="1" data-original="#000000" class=""></path></g></g></svg>