<svg width="1205" height="301" viewBox="0 0 1205 301" fill="none" xmlns="http://www.w3.org/2000/svg"><g clip-path="url(#clip0_5942_49993)"><mask id="path-1-inside-1_5942_49993" fill="#fff"><path d="M0 614.869c0-80.746 15.584-160.701 45.863-235.301 30.278-74.6 74.658-142.383 130.605-199.48 55.947-57.096 122.367-102.387 195.465-133.287C445.032 15.9 523.379-.004 602.5-.004c79.121 0 157.468 15.905 230.567 46.805 73.098 30.9 139.517 76.191 195.463 133.288 55.95 57.096 100.33 124.879 130.61 199.479 30.28 74.599 45.86 154.555 45.86 235.301H890.86c0-38.645-7.459-76.912-21.95-112.616-14.492-35.704-35.732-68.146-62.509-95.472-26.777-27.327-58.565-49.003-93.55-63.792-34.986-14.789-72.483-22.401-110.351-22.401-37.868 0-75.365 7.612-110.35 22.401-34.986 14.789-66.774 36.465-93.551 63.792-26.777 27.326-48.017 59.768-62.509 95.472-14.491 35.704-21.95 73.971-21.95 112.616H0z"/></mask><path d="M0 614.869c0-80.746 15.584-160.701 45.863-235.301 30.278-74.6 74.658-142.383 130.605-199.48 55.947-57.096 122.367-102.387 195.465-133.287C445.032 15.9 523.379-.004 602.5-.004c79.121 0 157.468 15.905 230.567 46.805 73.098 30.9 139.517 76.191 195.463 133.288 55.95 57.096 100.33 124.879 130.61 199.479 30.28 74.599 45.86 154.555 45.86 235.301H890.86c0-38.645-7.459-76.912-21.95-112.616-14.492-35.704-35.732-68.146-62.509-95.472-26.777-27.327-58.565-49.003-93.55-63.792-34.986-14.789-72.483-22.401-110.351-22.401-37.868 0-75.365 7.612-110.35 22.401-34.986 14.789-66.774 36.465-93.551 63.792-26.777 27.326-48.017 59.768-62.509 95.472-14.491 35.704-21.95 73.971-21.95 112.616H0z" stroke="url(#paint0_linear_5942_49993)" stroke-width="2" mask="url(#path-1-inside-1_5942_49993)"/></g><defs><linearGradient id="paint0_linear_5942_49993" x1="1027.19" y1="-168.124" x2="1020.99" y2="228.83" gradientUnits="userSpaceOnUse"><stop stop-color="#fff"/><stop offset="1" stop-color="#fff" stop-opacity="0"/></linearGradient><clipPath id="clip0_5942_49993"><path fill="#fff" d="M0 0h1205v301H0z"/></clipPath></defs></svg>